<?xml version="1.0" encoding="utf-8"?>
<!-- Generator: Adobe Illustrator 27.2.0, SVG Export Plug-In . SVG Version: 6.00 Build 0)  -->
<svg version="1.1" xmlns="http://www.w3.org/2000/svg" xmlns:xlink="http://www.w3.org/1999/xlink" x="0px" y="0px" width="1920px"
	 height="1080px" viewBox="0 0 1920 1080" style="enable-background:new 0 0 1920 1080;" xml:space="preserve">
<style type="text/css">
	.st0{fill:#13738B;}
	.st1{fill:#F3726D;}
</style>
<g id="txt">
	<g>
		<path class="st0" d="M805.38,491.99h37.45c25.44,0,46.35,15.12,46.35,48.04c0,28.27-20.91,48.06-46.35,48.06h-37.45V491.99z
			 M840.7,571.12c16.54,0,30.38-12.15,30.38-31.09c0-20.91-13.84-31.09-30.38-31.09h-17.66v62.19H840.7z"/>
		<path class="st0" d="M901.11,549.79c0-21.2,17.38-38.58,38.72-38.58c21.34,0,38.72,17.39,38.72,38.58v39.29h-16.96v-11.59
			c-4.52,6.64-12.58,11.16-21.76,11.16C918.48,588.65,901.11,571.27,901.11,549.79z M961.59,549.79c0-11.88-9.75-21.62-21.76-21.62
			s-21.76,9.75-21.76,21.62c0,12.15,9.75,21.9,21.76,21.9S961.59,561.94,961.59,549.79z"/>
		<path class="st0" d="M993.32,558.62v-28.12h-6.93v-16.95h6.93v-6.18l16.96-9.37v15.55h18.23v16.95h-18.23v24.32
			c0,15.97,11.73,17.38,21.9,17.38v16.96C1016.78,589.15,993.32,585.19,993.32,558.62z"/>
		<path class="st0" d="M1212.53,558.62v-28.12h-6.93v-16.95h6.93v-6.18l16.96-9.37v15.55h18.23v16.95h-18.23v24.32
			c0,15.97,11.73,17.38,21.9,17.38v16.96C1235.99,589.15,1212.53,585.19,1212.53,558.62z"/>
		<path class="st0" d="M1040.02,550.28c0-21.2,17.38-38.58,38.72-38.58c21.34,0,38.72,17.39,38.72,38.58v39.29h-16.96v-11.59
			c-4.52,6.64-12.58,11.16-21.76,11.16C1057.39,589.15,1040.02,571.77,1040.02,550.28z M1100.5,550.28
			c0-11.88-9.75-21.62-21.76-21.62s-21.76,9.75-21.76,21.62c0,12.15,9.75,21.9,21.76,21.9S1100.5,562.44,1100.5,550.28z"/>
		<path class="st0" d="M1134.9,567.38c19.37,10.74,45.37,14.13,45.51,0.28c0-12.43-50.88-7.2-49.32-35.6
			c1.69-24.32,37.87-28.98,65.14-10.61l-6.92,11.74c-15.83-12.44-40.14-11.31-40.56-0.29c-0.71,12.72,49.18,9.33,49.18,34.06
			c0,22.9-26.71,35.33-68.98,14.56L1134.9,567.38z"/>
		<path class="st0" d="M1265.69,513.54h16.11v8.9c3.82-6.92,14.42-9.46,24.03-8.9v16.95c-11.88-1.83-23.18,5.24-23.18,16.96v41.13
			h-16.96V513.54z"/>
		<path class="st0" d="M1320.57,602.57c16.25,3.39,25.72-12.58,21.2-21.62l-27.84-67.41h18.09l21.76,52.14l21.77-52.14h17.94
			l-30.94,75.04c-8.62,18.52-18.8,33.77-41.98,30.24V602.57z"/>
	</g>
</g>
<g id="icon">
	<g>
		<path class="st1" d="M661.84,423.14c41.04,22.88,68.88,66.71,68.88,116.94s-27.84,94.06-68.88,116.94
			c60.89-4.26,108.97-54.97,108.97-116.94C770.81,478.11,722.73,427.4,661.84,423.14z"/>
		<path class="st1" d="M653.55,432.32c-6-3.17-12.29-5.84-18.83-7.98c-1.67-0.55-3.35-1.05-5.05-1.52h-31.17
			c4.22,2.49,8.3,5.19,12.2,8.11c18.64,13.97,33.51,32.69,42.85,54.33c6.99,16.21,10.88,34.05,10.88,52.79s-3.89,36.59-10.88,52.79
			c-9.93,23.02-26.14,42.7-46.46,56.91c-5.08,3.55-10.42,6.75-15.98,9.58h38.56c1.7-0.47,3.38-0.98,5.05-1.52
			c6.54-2.14,12.83-4.82,18.83-7.98c38.7-20.42,65.15-61.05,65.15-107.76S692.24,452.74,653.55,432.32z"/>
		<path class="st1" d="M555.16,657.34c1.69-0.35,3.36-0.75,5.03-1.16c12.37-3.1,24-8.1,34.55-14.66
			c34.58-21.51,57.65-59.83,57.65-103.46c0-42.21-21.59-79.46-54.3-101.31c-8.68-5.8-18.15-10.49-28.2-13.93h-5.72h-30.82
			c3.85,2.27,7.57,4.73,11.16,7.36c10.14,7.45,19.19,16.3,26.88,26.26c17.46,22.61,27.89,50.91,27.89,81.62
			c0,31.74-11.13,60.92-29.66,83.88c-8.15,10.1-17.72,18.99-28.43,26.36c-3.78,2.61-7.7,5.04-11.75,7.25
			c-1.14,0.62-2.31,1.21-3.47,1.8h6.6H555.16z"/>
	</g>
</g>
</svg>
